<svg xmlns="http://www.w3.org/2000/svg" version="1.1" xmlns:xlink="http://www.w3.org/1999/xlink" xmlns:svgjs="http://svgjs.dev/svgjs" width="100%" height="100%" viewBox="0 0 1000 600"><rect width="1000" height="600" x="0" y="0" fill="#f96167"/><g><rect width="333.3333333333333" height="333.3333333333333" y="280.2749407119194" fill="#fce77d" transform="matrix(0.48439717024978635,0,0,0.48439717024978635,0,83.50275353501347)" x="258.0527648925781"/><path d="M390.76110144295956 505.66184254588075L410.88014845289547 486.79279549810065L409.8087199139048 466.4356532572779L389.89800623099484 448.2213680944365L359.89800713925604 453.7868441164158L356.47538819525806 456.58446307933593L355.1658644253806 502.8642235829607L360.314673793308 506.9416044118974L390.76110144295956 505.66184254588075ZM362.45753087128935 387.1499413719683L354.33253111727674 389.94756033488835L356.02895963734534 433.87613043350586L358.3801500423526 438.16184458946856L388.82657769200415 431.5249400284986L407.04086285484556 415.4535119436385L393.5289585020188 386.73327471791634L362.45753087128935 387.1499413719683ZM418.8265767837429 453.37017746236387L428.0230050767462 488.93565257608196L401.89205348691814 521.9416039577668L340.40396011039803 520.6618420917501L340.40396011039803 520.6618420917501L317.2491989066552 520.4535087647242L316.1777703676645 513.3701756458414L340.1658648795112 509.2927948169047L336.5349126084873 386.0785128329776L318.1122941186199 379.85827492605955L316.59443702171643 372.80470371103763L341.23729341850185 372.80470371103763L341.4753886493887 372.80470371103763L371.47538774112746 371.9416084990729L405.3146724309161 376.2273226550356L423.5289575937575 419.50113086871437L402.3087201409701 442.00113018751847L418.8265767837429 453.37017746236387ZM512.2491930029572 444.59041582341257L533.2610971287187 445.87017768942917L533.2610971287187 459.382082042256L513.9753834268867 458.3106535032653L494.45157449416774 458.5189868302913L494.24324116714183 471.1677959711534L494.68966972505456 498.57850942699804L483.32062245020916 498.78684275402395L481.5944320262797 472.239224510144L481.83252725716653 458.5189868302913L466.5944324804103 458.5189868302913L443.02300462261553 458.5189868302913L443.4694331805283 445.66184436240326L468.11228957731373 446.2868443434811L482.2491939112184 445.87017768942917L482.2491939112184 437.29874937750384L481.38609869925375 408.78684547880766L494.8980030520805 409.85827401779835L495.52300303315843 437.09041605047787L494.8980030520805 445.4535110353773L512.2491930029572 444.59041582341257Z " fill="#f96167" transform="matrix(0.48439717024978635,0,0,0.48439717024978635,0,83.50275353501347)"/><path d="M752.4837758335291 459.0769467452741L754.1701285539073 421.74237829031944L733.8912034354355 398.98728968369755L716.8355600989526 394.84611971213593L705.4580157956416 397.9199778353569L704.5401276060686 477.52009548459995L733.8912034354355 480.4445299490532L752.4837758335291 459.0769467452741ZM735.5775561558137 386.3930098732783L766.3161373880234 419.1167911434015L761.4065028856566 468.46929101067155L736.8156378998888 493.06015599643933L697.7733704875891 490.2851451907537L674.7194345634318 490.7547624040236L675.1890517767017 485.9732053234576L691.7750778999149 482.1308826694314L692.3941187719524 393.928231522563L681.635615340679 389.7657153140346L682.2546562127166 384.2370399396302L697.4745231700538 383.468575408825L735.5775561558137 386.3930098732783ZM838.7012269424839 479.9962589727502L848.691265842952 486.2933988779598L842.3941259377424 496.2834377784279L829.4796525728209 488.2785989158734L808.1334156060086 454.1673122429073L801.3666584875292 457.5400176836637L801.3666584875292 485.52493434715456L813.0430501083755 488.8976397879109L813.9609382979485 493.209579655207L783.3717807245064 493.9780441860122L782.7740860894357 489.36725700118075L790.1385378429859 486.2933988779598L787.064679719765 390.08590886853676L778.6115698809073 387.78051527612104L778.9317634354095 383.6179990675927L811.9757382600349 382.8495345367874L811.506121046765 388.8478271244617L801.046464933027 391.1532207168774L801.3666584875292 449.7059487168435L807.5143747339712 447.4005551244278L819.9592308856227 430.96395265998234L830.4188869993607 411.7523393898513L839.3202678145215 414.50600395857003L827.6438761936752 436.4926280343867L816.8853727624017 450.9440304609186L838.7012269424839 479.9962589727502ZM937.2354567812895 471.84199645142786L943.9808676628021 483.5183880722742L921.3965489519147 494.27689150354763L912.7940154542894 491.9714979111319L910.0190046486038 483.0701170959711L908.0338046106901 472.46103732346546L880.8173524780045 494.1274678447799L864.8290209898621 488.59879247037554L860.2182338050306 470.45449104858506L859.7699628287276 423.12988369316224L853.3020530277835 420.35487288747663L853.7716702410534 416.6619738922181L881.2869696912744 416.04293302018056L880.5185051604692 421.5929546315517L872.5136662979146 424.8162364135404L872.5136662979146 468.14909745616933L878.2131115680534 481.832035351896L888.2031504685216 476.30335997749165L906.795722866615 465.9931275225213L909.2505401177986 423.2793073519299L902.483782999319 420.20544922870897L902.9534002125889 416.04293302018056L927.2454178808213 416.04293302018056L928.0138824116266 421.27276107704955L920.0090435490719 424.34661920027054L919.5607725727689 481.36241813862614L921.8661661651846 485.2047407926524L937.2354567812895 471.84199645142786ZM995.3185675679856 478.6087535699074L995.3185675679856 487.0618634087651L970.1086617101803 491.8220742523642L958.1334227717987 479.9962589727502L958.1334227717987 464.1573511433754L958.1334227717987 424.4960428590382L950.7476247812816 425.73412460311334L944.7493321936074 427.12163000595615L943.6820203452667 419.7358320154391L954.5899474353079 416.21370291591506L956.7459173689558 416.21370291591506L956.7459173689558 401.7623004893831L954.5899474353079 396.8313197500495L967.6538444589969 396.8313197500495L968.891926203072 410.2154103282408L968.891926203072 415.12504483060764L990.4089330656188 412.52080392065653L990.4089330656188 424.4960428590382L968.891926203072 423.4287310106976L968.891926203072 473.9979663850759L976.1069542978546 482.1308826694314L995.3185675679856 478.6087535699074ZM1072.7840615205475 386.3930098732783L1110.5882471887721 383.6179990675927L1120.279438771705 390.2353325273045L1124.570032402034 384.2370399396302L1132.7242949233564 390.6836035036075L1118.2728924968244 408.05944039459274L1112.4453698048846 402.68018867895603L1105.0595718143677 393.15976699175775L1082.0056358902104 396.8313197500495L1069.8596270560943 409.1267522429333L1079.230625084525 426.50258913391855L1119.0413570276298 436.9622452476566L1128.4123550560603 448.4892132097352L1125.6586904873416 478.45932991113966L1093.8314511698245 493.209579655207L1065.7184570845327 485.52493434715456L1060.9582462409335 493.209579655207L1051.565901975536 491.0536097215589L1060.9582462409335 470.45449104858506L1068.7923152077537 472.7598846410008L1093.062986639019 480.59395360782094L1117.0561569897163 471.07353192062266L1112.4453698048846 447.25113146566014L1065.2488398712628 437.55993988272735L1056.4968827148696 405.45519948464164L1072.7840615205475 386.3930098732783ZM1190.9781756057873 478.6087535699074L1190.9781756057873 487.0618634087651L1165.7682697479818 491.8220742523642L1153.7716845726334 479.9962589727502L1153.7716845726334 464.1573511433754L1153.7716845726334 424.4960428590382L1146.4072328190832 425.73412460311334L1140.408940231409 427.12163000595615L1139.3416283830684 419.7358320154391L1150.2495554731095 416.21370291591506L1152.4055254067573 416.21370291591506L1152.4055254067573 401.7623004893831L1150.2495554731095 396.8313197500495L1163.3134524967986 396.8313197500495L1164.5301880039067 410.2154103282408L1164.5301880039067 415.12504483060764L1186.0471948664535 412.52080392065653L1186.0471948664535 424.4960428590382L1164.5301880039067 423.4287310106976L1164.5301880039067 473.9979663850759L1171.766562335656 482.1308826694314L1190.9781756057873 478.6087535699074ZM1282.7243020891465 471.84199645142786L1289.491059207626 483.5183880722742L1266.9067404967386 494.27689150354763L1258.2828607621464 491.9714979111319L1255.5291961934277 483.0701170959711L1253.5226499185474 472.46103732346546L1226.3275440228283 494.1274678447799L1210.3392125346859 488.59879247037554L1205.7284253498544 470.45449104858506L1205.2588081365845 423.12988369316224L1198.8122445726074 420.35487288747663L1199.281861785877 416.6619738922181L1226.7758149991314 416.04293302018056L1226.0073504683262 421.5929546315517L1218.0238578427384 424.8162364135404L1218.0238578427384 468.14909745616933L1223.7019568759104 481.832035351896L1233.6919957763785 476.30335997749165L1252.3059144114388 465.9931275225213L1254.7607316626222 423.2793073519299L1247.993974544143 420.20544922870897L1248.4635917574128 416.04293302018056L1272.7342631886781 416.04293302018056L1273.5027277194836 421.27276107704955L1265.5192350938958 424.34661920027054L1265.0496178806256 481.36241813862614L1267.3550114730417 485.2047407926524L1282.7243020891465 471.84199645142786ZM1340.6793354540418 463.8585038258401L1341.447799984847 430.49433544671245L1323.4529222218243 423.727578328233L1307.0163197573788 429.10683004386965L1303.0245734445848 459.24771664100865L1316.6861651033446 481.832035351896L1325.4594684967046 479.8254890770157L1340.6793354540418 463.8585038258401ZM1370.9482994729817 489.0470634466786L1346.3574344872138 491.0536097215589L1340.0602945820042 477.0718245082969L1329.9208320227685 490.7547624040236L1306.546702544109 489.36725700118075L1291.0279882692364 458.3084822144689L1300.249562638899 422.361419162357L1322.5350340322514 413.43869211022945L1343.1341527052252 421.8918019490871L1343.9026172360304 383.468575408825L1353.5724625819964 371.94160744674633L1362.1963423165885 379.0072118827612L1355.7284325156445 384.3864635983979L1353.1241916056933 482.3016525651659L1367.8744413497607 479.5266417594803L1370.9482994729817 489.0470634466786ZM1449.1822579563486 417.43043842302336L1440.729148117491 420.5042965462443L1408.1334442691686 514.4063929632516L1390.458760060648 521.9416146125363L1371.247146790517 511.95157571206823L1375.4096629990454 501.81211315283235L1391.5474181459556 511.95157571206823L1400.0005279848133 509.64618211965245L1404.461891510877 497.0519023092332L1408.4536378236708 483.5183880722742L1400.4487989611162 487.8303279395703L1379.7002566293747 423.5781546694653L1372.7840758521274 422.95911379742773L1370.9482994729817 416.5125502334504L1391.0778009326855 414.67677385430454L1397.9939817099328 446.4826669348549L1409.670373330779 480.14568263151784L1428.7325629421425 419.88525567420675L1421.6669585061277 417.75063197752553L1421.8163821648955 413.73753942776483L1448.2643697667759 413.5881157689971L1449.1822579563486 417.43043842302336ZM1498.9830287999216 415.59466204387746L1509.890955889963 428.5091354087989L1500.5199578615322 436.4926280343867L1492.3656953402099 424.6668127547727L1479.9208391885584 428.8079827263343L1476.2279401932997 436.9622452476566L1476.8469810653373 483.0701170959711L1485.9191317762327 485.9732053234576L1484.979897349693 491.3524570390943L1457.7847914539739 491.3524570390943L1457.315174240704 487.21128706753274L1464.5515485724536 484.28685260307947L1464.4021249136858 422.80969013866L1456.8669032644011 418.5190965083308L1463.462890487146 410.0659866694731L1474.6910111316893 417.28101476425564L1475.6088993212625 422.5108428211247L1483.4429682880823 419.4369846979037L1498.9830287999216 415.59466204387746ZM1557.3863331411203 422.5108428211247L1541.6968489705132 421.27276107704955L1528.1846809705212 438.79802162680244L1531.0877691980074 469.0669856457423L1548.1647587714574 485.2047407926524L1559.6917267335361 485.05531713388467L1574.1217829231011 456.7715531528584L1567.6752193591237 430.1954881291771L1557.3863331411203 422.5108428211247ZM1536.7872144681464 410.983874859046L1562.5948149610226 410.983874859046L1578.903340003667 426.0329719206487L1585.051056250109 461.23291667892215L1563.3632794918276 495.19477969312055L1541.846272629281 496.13401411966026L1519.2619539183934 468.9175619869746L1517.5756011980152 433.8883871244356L1536.7872144681464 410.983874859046ZM1634.06201632591 422.5108428211247L1618.3938783922697 421.27276107704955L1604.8603641553107 438.79802162680244L1607.784798619764 469.0669856457423L1624.840441956247 485.2047407926524L1636.3674099183258 485.05531713388467L1650.8188123448576 456.7715531528584L1644.3722487808805 430.1954881291771L1634.06201632591 422.5108428211247ZM1613.484243889903 410.983874859046L1639.291844382779 410.983874859046L1655.5790231884569 426.0329719206487L1661.7267394348987 461.23291667892215L1640.0603089135843 495.19477969312055L1618.5433020510375 496.13401411966026L1595.95898334015 468.9175619869746L1594.272630619772 433.8883871244356L1613.484243889903 410.983874859046ZM1799.6020840035394 465.8437038637536L1806.3688411220187 473.9979663850759L1787.1572278518875 491.8220742523642L1774.5416018045016 489.51668065994846L1773.154096401659 428.18894185429673L1763.7830983732283 422.361419162357L1741.647050638644 437.8801334372295L1742.885132382719 444.17727334243915L1744.4220614443293 483.36896441350655L1752.1067067523818 487.0618634087651L1751.3382422215768 490.7547624040236L1723.2039018993182 491.5232269348288L1723.8229427713554 487.5101343850681L1731.5075880794084 483.8385816267764L1730.5896998898352 431.88184084955526L1724.2925599846258 422.0412256078548L1710.4601984301312 428.6585590675666L1695.5391787903293 443.4088088116339L1696.9266841931722 483.5183880722742L1706.617875776105 486.74166985426285L1705.8494112453 492.2916914656341L1676.6477590747004 491.9714979111319L1676.1781418614305 487.6809042808026L1683.0943226386778 484.905893475117L1684.182980723985 424.4960428590382L1672.485242866172 416.6619738922181L1679.2519999846515 405.28442958890713L1692.315897008341 415.7440857026452L1693.2337851979137 431.4122236362854L1713.3846328945842 415.4452383851098L1737.0362634538124 416.21370291591506L1739.811274259498 430.64375910548017L1764.2527155864982 415.4452383851098L1780.3904707334082 418.19890295382856L1786.0685697665804 430.64375910548017L1783.7631761741645 481.0635708210908L1787.925692382693 481.36241813862614L1799.6020840035394 465.8437038637536Z " fill="#fce77d" transform="matrix(0.48439717024978635,0,0,0.48439717024978635,0,83.50275353501347)"/></g></svg>